HIERARCHY
ROOT Hips
{
	OFFSET	0.00	0.00	0.00
	CHANNELS 6 Xposition Yposition Zposition Zrotation Xrotation Yrotation
	JOINT LeftUpLeg
	{
		OFFSET	 0.126116	-0.065224	 0.014019
		CHANNELS 3 Zrotation Xrotation Yrotation
		JOINT LeftLeg
		{
			OFFSET	 0.000000	 0.569914	 0.000000
			CHANNELS 3 Zrotation Xrotation Yrotation
			JOINT LeftFoot
			{
				OFFSET	 0.000000	 0.544423	 0.000000
				CHANNELS 3 Zrotation Xrotation Yrotation
				JOINT LeftToeBase
				{
					OFFSET	 0.000000	 0.207117	 0.000000
					CHANNELS 3 Zrotation Xrotation Yrotation
					End Site
					{
						OFFSET	 0.000000	 0.207117	 0.000000
					}
				}
			}
		}
	}
	JOINT RightUpLeg
	{
		OFFSET	-0.124023	-0.065224	 0.008373
		CHANNELS 3 Zrotation Xrotation Yrotation
		JOINT RightLeg
		{
			OFFSET	 0.000000	 0.570047	 0.000000
			CHANNELS 3 Zrotation Xrotation Yrotation
			JOINT RightFoot
			{
				OFFSET	 0.000000	 0.544354	 0.000000
				CHANNELS 3 Zrotation Xrotation Yrotation
				JOINT RightToeBase
				{
					OFFSET	 0.000000	 0.207540	 0.000000
					CHANNELS 3 Zrotation Xrotation Yrotation
					End Site
					{
						OFFSET	 0.000000	 0.207540	 0.000000
					}
				}
			}
		}
	}
	JOINT Spine
	{
		OFFSET	 0.000184	 0.117403	 0.007763
		CHANNELS 3 Zrotation Xrotation Yrotation
		JOINT Spine1
		{
			OFFSET	 0.000000	 0.137269	 0.000000
			CHANNELS 3 Zrotation Xrotation Yrotation
			JOINT Spine2
			{
				OFFSET	 0.000000	 0.156879	 0.000000
				CHANNELS 3 Zrotation Xrotation Yrotation
				JOINT LeftShoulder
				{
					OFFSET	 0.080501	 0.160143	 0.002496
					CHANNELS 3 Zrotation Xrotation Yrotation
					JOINT LeftArm
					{
						OFFSET	 0.000000	 0.164363	 0.000000
						CHANNELS 3 Zrotation Xrotation Yrotation
						JOINT LeftForeArm
						{
							OFFSET	 0.000000	 0.364576	 0.000000
							CHANNELS 3 Zrotation Xrotation Yrotation
							JOINT LeftHand
							{
								OFFSET	 0.000000	 0.360812	 0.000000
								CHANNELS 3 Zrotation Xrotation Yrotation
								JOINT LeftHandIndex1
								{
									OFFSET	 0.000000	 0.086006	 0.000000
									CHANNELS 3 Zrotation Xrotation Yrotation
									JOINT LeftHandIndex2
									{
										OFFSET	 0.000000	 0.047237	 0.000000
										CHANNELS 3 Zrotation Xrotation Yrotation
										JOINT LeftHandIndex3
										{
											OFFSET	-0.004284	 0.038165	 0.000551
											CHANNELS 3 Zrotation Xrotation Yrotation
											End Site
											{
												OFFSET	-0.004284	 0.038165	 0.000551
											}
										}
									}
								}
							}
						}
					}
				}
				JOINT Neck
				{
					OFFSET	 0.000000	 0.176489	 0.000000
					CHANNELS 3 Zrotation Xrotation Yrotation
					JOINT Head
					{
						OFFSET	 0.000000	 0.077941	 0.001747
						CHANNELS 3 Zrotation Xrotation Yrotation
						End Site
						{
							OFFSET	 0.000000	 0.077941	 0.001747
						}
					}
				}
				JOINT RightShoulder
				{
					OFFSET	-0.080363	 0.159706	-0.000306
					CHANNELS 3 Zrotation Xrotation Yrotation
					JOINT RightArm
					{
						OFFSET	 0.000000	 0.164196	 0.000000
						CHANNELS 3 Zrotation Xrotation Yrotation
						JOINT RightForeArm
						{
							OFFSET	 0.000000	 0.365611	 0.000000
							CHANNELS 3 Zrotation Xrotation Yrotation
							JOINT RightHand
							{
								OFFSET	 0.000000	 0.360648	 0.000000
								CHANNELS 3 Zrotation Xrotation Yrotation
								JOINT RightHandIndex1
								{
									OFFSET	 0.000000	 0.069977	 0.000000
									CHANNELS 3 Zrotation Xrotation Yrotation
									JOINT RightHandIndex2
									{
										OFFSET	 0.000000	 0.052305	 0.000000
										CHANNELS 3 Zrotation Xrotation Yrotation
										JOINT RightHandIndex3
										{
											OFFSET	 0.009002	 0.042196	 0.000782
											CHANNELS 3 Zrotation Xrotation Yrotation
											End Site
											{
												OFFSET	 0.009002	 0.042196	 0.000782
											}
										}
									}
								}
							}
						}
					}
				}
			}
		}
	}
}
MOTION
Frames:    13
Frame Time: 0.03333334
 0.016237	 1.259096	-0.237266	-0.390231	 2.586513	-179.174500	-175.397800	 3.973835	-26.867330	 4.138918	-20.081560	 5.452858	-1.220095	 73.546810	 0.813884	 1.331492	 28.938720	-2.729976	 178.049700	-12.941550	 34.236390	-1.483357	-4.881278	-6.294740	 4.410611	 75.545880	-0.294694	-1.291520	 28.409040	 2.874089	-2.013181	 4.328652	 19.626930	-0.845649	 1.502620	 3.560536	-1.182820	 2.378880	-11.048880	-113.441700	 5.185142	 92.948270	 61.866270	 32.532700	-2.436404	 8.998413	-0.252876	-11.396690	-17.354660	 18.386010	 50.940080	-6.580301	 5.266122	 0.000000	 0.000000	 0.000000	 0.000000	 0.000000	 0.000000	 0.000000	 4.714713	-0.207156	-0.620733	 5.039350	 0.628051	-1.925646	 114.232100	-4.500337	-88.283290	-29.501230	 39.036740	-32.613540	-86.100920	-2.087316	 9.306089	-0.627905	-22.748190	-55.746580	-0.797964	 22.507060	 0.870019	 12.408700	 20.979590	-4.701840	-8.458897	 9.273341	-0.284162
 0.015527	 1.258758	-0.235619	-0.507679	 2.627295	-178.771100	-175.520300	 4.234109	-26.427640	 4.175645	-20.245090	 5.873862	 0.252537	 73.614910	-0.666090	 1.331492	 28.938720	-2.729976	 177.982000	-12.943080	 34.752180	-1.484392	-4.884687	-6.161090	 4.945069	 75.487240	-0.828445	-1.290673	 28.399900	 2.909764	-1.585981	 4.536384	 14.118020	-0.826508	 1.663817	 3.414047	-1.302234	 2.333608	-11.236410	-113.442400	 5.092669	 92.917150	 62.400110	 32.615210	-2.829209	 7.612827	-0.255848	-7.420022	-16.453170	 18.781360	 46.473140	-6.580301	 5.266122	 0.000000	 0.000000	 0.000000	 0.000000	 0.000000	 0.000000	 0.000000	 4.537635	-0.184696	-0.692550	 5.013323	 0.462573	-2.150353	 114.223500	-4.440181	-88.321230	-26.471500	 42.029070	-33.048120	-71.030820	-2.026585	 5.899253	-3.787939	-16.533330	-39.464570	-0.860011	 24.064380	 0.894546	 12.509730	 22.500920	-5.063694	-8.468441	 10.032030	-0.331978
 0.018735	 1.258926	-0.234359	-0.477093	 2.776672	-179.314800	-175.382400	 4.003524	-26.963310	 4.145819	-20.112320	 5.569513	-0.888590	 73.442180	 0.439466	 1.331492	 28.938720	-2.729976	 178.060300	-12.947180	 34.211320	-1.484869	-4.886266	-6.742215	 2.434938	 75.569810	 1.523897	-1.291404	 28.409790	 2.917698	-1.165128	 4.713938	 9.130284	-0.821193	 1.797917	 3.529382	-1.289490	 2.332885	-11.307090	-113.443400	 5.080909	 92.926770	 60.892460	 33.750180	-1.620208	 6.262595	-0.255500	-3.718233	-15.314430	 18.099660	 42.926970	-6.580301	 5.266122	 0.000000	 0.000000	 0.000000	 0.000000	 0.000000	 0.000000	 0.000000	 4.377537	-0.165972	-0.719625	 4.910790	 0.523401	-2.189892	 114.218400	-4.405419	-88.344360	-25.378110	 42.689420	-33.794100	-61.657720	-1.931502	 2.526753	-3.192935	-17.172930	-27.910980	-0.820117	 23.067260	 0.878597	 12.443740	 21.526910	-4.831228	-8.462569	 9.559327	-0.302193
 0.022100	 1.259081	-0.232903	-0.431910	 2.944792	-179.940800	-175.224600	 3.710665	-27.578250	 4.114355	-19.972000	 5.218292	-2.186853	 73.275280	 1.692835	 1.331492	 28.938720	-2.729976	 178.132300	-12.953090	 33.580860	-1.485794	-4.889294	-7.397274	-0.398658	 75.620550	 4.197569	-1.292254	 28.421190	 2.926056	-0.667303	 4.864727	 3.355297	-0.827607	 1.865284	 3.488451	-1.262354	 2.371471	-11.384290	-113.444500	 5.069269	 92.938290	 57.022330	 36.171730	 0.727766	 5.083097	-0.253263	 0.433186	-12.426730	 15.318380	 38.256070	-6.580301	 5.266122	 0.000000	 0.000000	 0.000000	 0.000000	 0.000000	 0.000000	 0.000000	 4.198891	-0.145025	-0.749002	 4.794817	 0.595579	-2.230586	 114.212800	-4.367047	-88.369960	-22.769990	 41.458100	-35.267860	-57.083930	-1.884514	-1.475764	 1.494841	-16.360530	-14.542930	-0.774353	 21.904970	 0.861095	 12.372670	 20.391280	-4.563673	-8.455418	 9.008079	-0.267446
 0.025265	 1.259269	-0.231440	-0.377451	 3.113306	 179.426200	-175.074300	 3.382257	-28.197870	 4.077658	-19.808090	 4.863341	-3.462092	 73.109850	 2.925817	 1.331492	 28.938720	-2.729976	 178.195300	-12.966850	 32.939250	-1.486462	-4.891479	-8.050580	-3.221458	 75.634120	 6.874189	-1.293114	 28.432700	 2.934498	-0.150395	 4.961023	-2.477336	-0.809328	 1.874989	 3.362388	-1.243521	 2.438113	-11.462440	-113.445600	 5.057515	 92.949910	 51.868530	 39.042110	 3.938803	 6.577723	-0.252172	 4.635417	-8.734133	 11.110980	 32.950140	-6.580301	 5.266122	 0.000000	 0.000000	 0.000000	 0.000000	 0.000000	 0.000000	 0.000000	 4.018456	-0.123775	-0.778608	 4.677736	 0.668471	-2.271649	 114.207200	-4.328260	-88.395810	-19.211480	 38.912280	-37.462720	-58.553960	-1.855861	-5.719409	 8.654598	-14.558170	-1.368729	-0.728877	 20.730870	 0.844562	 12.307100	 19.243810	-4.296849	-8.447861	 8.451275	-0.232331
 0.028335	 1.259579	-0.230033	-0.313112	 3.282760	 178.781000	-174.939200	 3.009960	-28.828110	 4.026183	-19.577530	 4.498877	-4.703995	 72.911830	 4.137139	 1.331492	 28.938720	-2.729976	 178.259400	-12.994020	 32.283290	-1.487182	-4.893839	-8.707203	-6.053988	 75.621570	 9.567428	-1.293991	 28.444420	 2.943092	 0.371778	 5.001539	-8.165975	-0.722866	 1.856818	 3.261345	-1.255755	 2.520094	-11.541930	-113.446800	 5.045537	 92.961720	 46.694320	 41.650940	 7.489542	 8.066989	-0.249745	 8.886297	-5.184942	 6.276402	 27.156430	-6.580301	 5.266122	 0.000000	 0.000000	 0.000000	 0.000000	 0.000000	 0.000000	 0.000000	 3.834811	-0.102049	-0.808675	 4.558618	 0.742638	-2.313325	 114.201500	-4.288785	-88.422100	-16.026110	 36.383640	-39.927420	-59.628520	-1.817431	-9.997573	 16.223100	-12.711600	 11.183020	-0.683312	 19.535930	 0.828879	 12.246590	 18.075710	-4.028555	-8.439828	 7.884547	-0.196564
 0.030604	 1.259951	-0.229049	-0.261170	 3.412075	 178.294900	-174.859500	 2.695154	-29.297530	 3.970298	-19.326540	 4.212902	-5.605382	 72.716640	 5.031284	 1.331492	 28.938720	-2.729976	 178.311200	-13.030900	 31.789700	-1.487159	-4.893744	-9.160035	-8.019149	 75.597060	 11.423900	-1.294902	 28.456360	 2.947132	 0.818898	 4.981217	-12.929530	-0.594701	 1.867877	 3.265059	-1.290105	 2.553484	-11.594930	-113.447700	 5.032207	 92.968880	 43.668100	 43.154030	 9.809150	 9.425947	-0.248626	 12.697610	-3.068434	 2.317871	 21.597510	-6.580301	 5.266122	 0.000000	 0.000000	 0.000000	 0.000000	 0.000000	 0.000000	 0.000000	 3.689976	-0.097232	-0.829052	 4.451973	 0.790512	-2.335031	 114.197000	-4.258009	-88.443010	-14.666520	 35.712430	-41.753390	-57.665510	-1.723555	-13.733430	 21.175450	-12.226330	 21.362700	-0.645510	 18.530930	 0.816552	 12.200430	 17.093090	-3.805251	-8.432669	 7.398992	-0.165892
 0.030716	 1.260057	-0.228828	-0.274256	 3.432484	 178.280100	-174.888800	 2.645622	-29.278490	 3.952444	-19.246130	 4.153603	-5.757245	 72.662380	 5.195168	 1.331492	 28.938720	-2.729976	 178.296500	-13.044850	 31.776510	-1.487015	-4.893296	-8.947129	-7.176436	 75.571920	 10.539980	-1.296509	 28.476480	 2.931892	 1.229910	 4.863665	-17.836770	-0.619399	 1.999428	 3.216455	-1.241275	 2.379311	-11.554560	-113.447800	 5.004459	 92.958150	 43.140350	 43.526600	 10.184210	 10.958670	-0.249753	 16.856490	-2.358671	-1.043046	 14.519700	-6.580301	 5.266122	 0.000000	 0.000000	 0.000000	 0.000000	 0.000000	 0.000000	 0.000000	 3.643034	-0.170471	-0.815834	 4.340481	 0.741939	-2.275008	 114.195700	-4.250082	-88.450980	-14.170030	 36.077070	-41.931970	-57.837040	-1.668565	-17.885750	 23.347730	-14.128670	 30.043360	-0.619251	 17.825820	 0.808359	 12.170560	 16.403590	-3.649769	-8.426726	 7.008454	-0.141196
 0.030823	 1.260218	-0.228599	-0.284739	 3.452842	 178.264400	-174.922300	 2.584160	-29.259500	 3.928303	-19.137350	 4.090576	-5.902773	 72.592830	 5.357384	 1.331492	 28.938720	-2.729976	 178.283700	-13.061850	 31.762460	-1.486920	-4.892992	-8.725747	-6.302944	 75.545750	 9.625468	-1.298159	 28.497190	 2.916198	 1.589692	 4.723273	-22.271220	-0.609900	 2.124911	 3.179107	-1.207016	 2.205986	-11.512860	-113.447900	 4.975888	 92.947070	 42.673160	 43.916250	 10.525540	 12.504490	-0.250959	 21.038730	-1.641970	-4.656942	 7.174160	-6.580301	 5.266122	 0.000000	 0.000000	 0.000000	 0.000000	 0.000000	 0.000000	 0.000000	 3.594719	-0.245889	-0.802288	 4.225695	 0.691838	-2.213279	 114.194300	-4.241951	-88.459140	-13.577630	 36.637220	-42.293520	-57.683730	-1.606638	-22.048930	 25.650710	-16.339300	 39.209560	-0.592423	 17.099590	 0.800307	 12.141950	 15.693360	-3.490583	-8.420437	 6.606316	-0.115746
 0.030917	 1.260422	-0.228375	-0.292849	 3.473405	 178.248000	-174.959100	 2.512854	-29.240960	 3.899450	-19.007110	 4.025593	-6.039701	 72.512530	 5.514736	 1.331492	 28.938720	-2.729976	 178.272500	-13.083050	 31.747310	-1.486306	-4.890990	-8.500450	-5.417804	 75.517680	 8.700458	-1.299814	 28.518060	 2.900389	 1.880416	 4.578384	-25.997730	-0.572845	 2.245517	 3.153250	-1.185264	 2.034841	-11.470720	-113.448100	 4.947097	 92.935940	 42.287570	 44.300360	 10.819690	 14.019200	-0.252182	 25.123790	-0.972044	-8.201554	-0.144826	-6.580301	 5.266122	 0.000000	 0.000000	 0.000000	 0.000000	 0.000000	 0.000000	 0.000000	 3.546075	-0.321862	-0.788708	 4.110092	 0.641263	-2.151084	 114.192900	-4.233755	-88.467380	-12.957440	 37.374050	-42.764260	-57.180190	-1.538812	-26.101960	 27.924740	-18.551110	 48.524560	-0.565605	 16.367950	 0.792584	 12.115280	 14.977770	-3.331128	-8.413925	 6.201258	-0.090085
 0.030988	 1.260656	-0.228172	-0.299240	 3.494012	 178.231800	-174.999000	 2.433231	-29.222240	 3.866947	-18.860120	 3.959334	-6.169124	 72.424770	 5.667537	 1.331492	 28.938720	-2.729976	 178.261900	-13.106870	 31.731830	-1.486050	-4.890112	-8.272491	-4.525512	 75.489230	 7.770051	-1.301465	 28.538960	 2.884548	 2.096431	 4.445265	-28.897390	-0.516714	 2.362395	 3.137594	-1.172336	 1.865550	-11.428420	-113.448200	 4.918263	 92.924760	 41.996040	 44.662300	 11.055310	 15.483890	-0.253453	 29.063690	-0.392855	-11.404120	-7.262288	-6.580301	 5.266122	 0.000000	 0.000000	 0.000000	 0.000000	 0.000000	 0.000000	 0.000000	 3.497355	-0.397991	-0.775167	 3.994278	 0.590534	-2.088896	 114.191500	-4.225546	-88.475640	-12.371300	 38.269330	-43.268810	-56.319790	-1.465363	-29.997330	 30.012780	-20.499270	 57.742270	-0.538932	 15.634770	 0.785231	 12.090710	 14.260610	-3.172204	-8.407220	 5.795405	-0.064347
 0.031031	 1.260916	-0.227997	-0.304688	 3.514479	 178.215100	-175.042600	 2.345759	-29.203360	 3.831321	-18.698760	 3.890717	-6.296014	 72.331410	 5.820474	 1.331492	 28.938720	-2.729976	 178.250800	-13.133530	 31.715740	-1.485779	-4.889232	-8.036636	-3.603464	 75.458600	 6.810705	-1.303150	 28.560370	 2.868326	 2.239194	 4.334676	-30.928490	-0.449326	 2.477852	 3.131311	-1.163681	 1.694624	-11.385060	-113.448400	 4.888730	 92.913320	 41.808110	 44.992950	 11.229460	 16.916850	-0.254567	 32.914040	 0.060689	-14.080960	-14.202170	-6.580301	 5.266122	 0.000000	 0.000000	 0.000000	 0.000000	 0.000000	 0.000000	 0.000000	 3.447491	-0.475949	-0.761369	 3.875706	 0.538494	-2.025276	 114.190000	-4.217123	-88.484110	-11.865000	 39.327800	-43.746420	-55.081190	-1.384527	-33.790120	 31.784210	-21.997820	 66.813270	-0.511818	 14.884030	 0.778093	 12.067740	 13.526200	-3.010310	-8.400171	 5.379860	-0.037962
 0.031034	 1.261180	-0.227869	-0.309708	 3.534683	 178.198300	-175.088200	 2.254242	-29.184940	 3.794907	-18.533410	 3.822664	-6.417574	 72.238980	 5.969027	 1.331492	 28.938720	-2.729976	 178.238900	-13.163100	 31.698910	-1.485091	-4.886991	-7.801412	-2.687400	 75.425730	 5.859635	-1.304806	 28.581490	 2.852313	 2.303307	 4.260560	-31.953910	-0.381873	 2.590621	 3.133583	-1.155632	 1.526572	-11.342190	-113.448500	 4.859582	 92.902040	 41.744610	 45.262970	 11.324390	 18.254670	-0.255462	 36.508320	 0.327147	-15.928490	-20.590570	-6.580301	 5.266122	 0.000000	 0.000000	 0.000000	 0.000000	 0.000000	 0.000000	 0.000000	 3.398293	-0.552904	-0.747818	 3.758685	 0.487029	-1.962503	 114.188600	-4.208812	-88.492460	-11.508030	 40.485590	-44.114220	-53.540300	-1.299603	-37.317870	 33.008180	-22.828030	 75.139090	-0.485240	 14.143040	 0.771432	 12.047230	 12.801280	-2.851292	-8.393032	 4.969725	-0.011888
